<?xml version="1.0" standalone="no"?>
<!DOCTYPE svg PUBLIC "-//W3C//DTD SVG 20010904//EN"
 "http://www.w3.org/TR/2001/REC-SVG-20010904/DTD/svg10.dtd">
<svg version="1.0" xmlns="http://www.w3.org/2000/svg"
 width="256.000000pt" height="256.000000pt" viewBox="0 0 256.000000 256.000000"
 preserveAspectRatio="xMidYMid meet">

<g transform="translate(0.000000,256.000000) scale(0.100000,-0.100000)"
fill="#000000" stroke="none">
<path d="M736 1928 c-14 -20 -16 -95 -16 -620 0 -585 0 -598 20 -618 19 -19
33 -20 273 -20 233 0 255 1 270 18 23 25 21 54 -4 86 l-20 26 -189 0 c-158 0
-191 3 -204 16 -14 14 -16 73 -16 499 l0 485 24 15 c21 14 61 16 303 13 267
-3 280 -4 330 -27 64 -28 128 -95 142 -147 15 -52 13 -131 -3 -177 -22 -61
-62 -103 -127 -136 -56 -28 -72 -31 -153 -31 -108 0 -136 -13 -136 -63 0 -24
39 -90 172 -287 94 -140 178 -263 186 -272 31 -36 61 -16 73 47 5 27 11 50 13
53 2 2 37 -30 78 -72 55 -57 80 -76 100 -76 27 0 58 31 58 58 0 8 -34 49 -75
91 -41 43 -75 80 -75 84 0 4 31 7 68 7 73 0 92 10 92 47 0 28 -3 30 -244 153
-102 52 -186 98 -186 102 0 3 17 12 38 19 213 69 319 275 252 491 -36 118
-119 200 -239 238 -58 18 -91 20 -426 20 l-364 0 -15 -22z"/>
</g>
</svg>
